# xmcd CD database file
#
# Track frame offsets:
#	150
#	19747
#	44507
#	63347
#	86340
#	109975
#	130629
#	150182
#	170502
#	188910
#	217384
#	239515
#
# Disc length: 3399 seconds
#
# Revision: 7
# Processed by: cddbd v1.5.2PL0 Copyright (c) Steve Scherf et al.
# Submitted via: CDex 1.72
#
DISCID=a10d450c
DTITLE=Muldaur, Maria (USA-96-Fanning The Flames-bls) - Fanning the Flames
DYEAR=1996
DGENRE=Blues
TTITLE0=Home of the Blues
TTITLE1=Fanning the Flames
TTITLE2=Trust in My Love
TTITLE3=Somebody Was Watching Over Me
TTITLE4=Heaven on Earth
TTITLE5=Stand by Me
TTITLE6=Talk Real Slow
TTITLE7=Stop Runnin' from Your Own Shadow
TTITLE8=Can't Pin Yo' Spin on Me
TTITLE9=Brotherly Love
TTITLE10=Well, Well, Well
TTITLE11=Strange and Foreign Land
EXTD=Recorded at Dockside Studios, Maurice US-LA, 1995-12-07/09, 1996-01-24/29, and 1996-02-20/22.\nBonnie Raitt and Huey Lewis recorded at The Plant, Sausalito US-CA, 1996-02-13.\nCD: Telarc Blues CD-83394 (1996-08-27), UPC 089408339424. YEAR: 1996
EXTT0=(Dave Steen/Colin James]\nMaria Muldaur: vocal\nSonny Landreth: slide guitar\nCranston Clements: guitar\nDave Torkanowsky: Rhodes synthesizer\nHutch Hutchinson: bass\nSteve Potts: drums
EXTT1=(Jon Cleary]\nMaria Muldaur: vocal\nCranston Clements: guitar\nDave Torkanowsky: Wurlitzer piano, Rhodes synthesizer\nHutch Hutchinson: bass\nSteve Potts: drums\nBill Summers: cabasa, shaker\nJon Cleary, Don Bryant, Mavis Staples, Ann Peebles: back
EXTT1=ground vocals
EXTT2=(Marty Grebb/Walt Richmond]\nMaria Muldaur, Johnny Adams: vocals\nCranston Clements: guitar\nDave Torkanowsky: Wurlitzer piano, Hammond B-3 organ\nHutch Hutchinson: bass\nSteve Potts: drums\nBob Henderson: alto sax\nBill Summers: congas
EXTT3=(Brenda Burns]\nMaria Muldaur, Bonnie Raitt: vocals\nCranston Clements: guitar\nDave Torkanowsky: Rhodes synthesizer\nHutch Hutchinson: bass\nSteve Potts: drums\nBill Summers: tambourine\nMavis Staples, Ann Peebles, Tracy Nelson, Don Bryant, Lucy A
EXTT3=nna Burnett, Alisa Yarbrough, Benita Arterberry: background vocals
EXTT4=(Marty Grebb]\nMaria Muldaur, Johnny Adams: vocals\nCranston Clements: guitar\nDave Torkanowsky: piano, Hammond B-3 organ\nHutch Hutchinson: bass\nSteve Potts: drums
EXTT5=(Lou Pardini/Phil Driscoll]\nMaria Muldaur: vocal\nCranston Clements: guitar\nDave Torkanowsky: Rhodes synthesizer\nHutch Hutchinson: bass\nSteve Potts: drums\nBill Summers: handsand\nBob Henderson: alto sax\nLady Bianca, Jennie Muldaur: background
EXTT5=vocals
EXTT6=(Lenny McDaniel]\nMaria Muldaur: vocal\nCranston Clements: guitar\nDave Torkanowsky: piano, Hammond B-3 organ\nHutch Hutchinson: bass\nSteve Potts: drums
EXTT7=(Joe Hughes]\nMaria Muldaur: vocal\nHuey Lewis: harmonica\nCranston Clements: guitar\nDave Torkanowsky: piano\nHutch Hutchinson: bass\nSteve Potts: drums
EXTT8=(Jon Cleary]\nMaria Muldaur: vocal\nCranston Clements: guitar\nDave Torkanowsky: Wurlitzer piano\nHutch Hutchinson: bass\nSteve Potts: drums\nBill Summers: congas\nDon Bryant, Alisa Yarbrough, Benita Arterberry: background vocals
EXTT9=(Brenda Burns/Gregory Boaz]\nMaria Muldaur, Mavis Staples: vocals\nCranston Clements: guitar\nDave Torkanowsky: Rhodes synthesizer\nHutch Hutchinson: bass\nSteve Potts: drums\nBill Summers: congas
EXTT10=(Bob Dylan/Danny O'Keefe]\nMaria Muldaur, Mavis Staples: vocal\nCranston Clements: guitar\nSonny Landreth: electric slide guitar, National steel guitar
EXTT11=(Jon Cleary]\nMaria Muldaur: vocal\nCranston Clements: guitar\nDave Torkanowsky: piano, Hammond B-3 organ\nHutch Hutchinson: bass\nSteve Potts: drums\nBill Summers: shaker, chain, udu, clay drum, bongo\nMavis Staples, Ann Peebles, Don Bryant, Jon 
EXTT11=Cleary, Lucy Anna Burnett, Charles Neville, Charlene Howard, Benita Arterberry, Alisa Yarbrough: background vocals
PLAYORDER=
